<?xml version="1.0" encoding="utf-8"?>
<!-- Generator: Adobe Illustrator 15.1.0, SVG Export Plug-In . SVG Version: 6.00 Build 0)  -->
<!DOCTYPE svg PUBLIC "-//W3C//DTD SVG 1.1//EN" "http://www.w3.org/Graphics/SVG/1.1/DTD/svg11.dtd">
<svg version="1.1" id="Layer_1" xmlns:sketch="http://www.bohemiancoding.com/sketch/ns"
	 xmlns="http://www.w3.org/2000/svg" xmlns:xlink="http://www.w3.org/1999/xlink" x="0px" y="0px" width="513px" height="419px"
	 viewBox="0 0 513 419" enable-background="new 0 0 513 419" xml:space="preserve">
<rect width="513" height="419"/>
<g id="Layer_1_1_" sketch:type="MSShapeGroup">
	<path id="Shape_1_" fill="#EDECDC" d="M134.2,28.2C78.1,28.2,32.1,74.1,32.1,130.3C32.1,186.5,78,232.4,134.2,232.4
		S236.3,186.5,236.3,130.3C236.3,73.5,191,28.2,134.2,28.2L134.2,28.2z M185.9,109.2v3.2c0,33.8-26.2,73.4-73.4,73.4
		c-14.7,0-28.1-4.5-39.5-11.5c1.9,0,3.8,0.6,6.4,0.6c12.1,0,23-3.8,31.899-10.8c-11.5,0-21-7.7-24.2-17.9c1.301,0,3.2,0.6,5.101,0.6
		c2.6,0,4.5,0,7-0.6c-11.5-2.6-20.4-12.8-20.4-25.5c0,0,0,0,0-0.6c3.2,1.9,7.7,3.2,11.5,3.2c-7-4.5-11.5-12.8-11.5-21.7
		c0-4.5,1.3-8.9,3.2-12.8c12.8,15.3,31.9,25.5,52.9,26.8c-0.601-1.9-0.601-3.8-0.601-5.7c0-14,11.5-25.5,25.5-25.5
		c7.7,0,14,3.2,18.5,8.3c5.7-1.3,11.5-3.2,16.601-6.4c-1.9,5.7-5.7,10.8-11.5,14c5.1-0.6,10.199-1.9,14.699-3.8
		C195.5,100.9,191,106,185.9,109.2L185.9,109.2z"/>
	<g id="Group" transform="translate(522.000000, 0.000000)">
		<path id="Shape_2_" fill="#EDECDC" d="M-86.1,106V90.1v-2.6h-2.5H-105.2V106H-86.1z"/>
		<path id="Shape_3_" fill="#EDECDC" d="M-128.8,149.4c10.8,0,19.8-8.9,19.8-19.8c0-4.5-1.3-8.3-3.8-11.5
			c-3.8-5.1-9.601-8.3-15.9-8.3s-12.1,3.2-15.899,8.3c-2.601,3.2-3.801,7-3.801,11.5C-148.6,141.1-139.6,149.4-128.8,149.4
			L-128.8,149.4z"/>
		<path id="Shape_4_" fill="#EDECDC" d="M-128.2,26.3c-56.8,0-102.1,45.9-102.1,102.1c0,56.8,45.899,102.1,102.1,102.1
			c56.8,0,102.101-45.9,102.101-102.1C-26.1,72.2-72,26.3-128.2,26.3L-128.2,26.3z M-73.3,118.8v45.3c0,12.1-9.601,21.7-21.7,21.7
			h-68.3c-12.101,0-21.7-9.6-21.7-21.7v-45.3v-23c0-12.1,9.6-21.7,21.7-21.7H-95c12.1,0,21.7,9.6,21.7,21.7V118.8L-73.3,118.8z"/>
		<path id="Shape_5_" fill="#EDECDC" d="M-98.8,130.3c0,16.6-13.4,30.6-30.601,30.6c-16.6,0-30.6-13.4-30.6-30.6
			c0-3.8,0.6-7.7,2.6-11.5H-174v45.3c0,5.7,4.5,10.8,10.8,10.8H-95c5.7,0,10.8-4.5,10.8-10.8v-45.3h-16.6
			C-99.5,122-98.8,125.8-98.8,130.3L-98.8,130.3z"/>
	</g>
</g>
<g id="Layer_1_copy" transform="translate(0.000000, 235.000000)" sketch:type="MSShapeGroup">
	<path id="Shape_8_" fill="#EDECDC" d="M134.2-12.131 M185.9,68.869v3.199c0,33.801-26.2,73.4-73.4,73.4c-14.7,0-28.1-4.5-39.5-11.5
		c1.9,0,3.8,0.6,6.4,0.6c12.1,0,23-3.8,31.899-10.8c-11.5,0-21-7.7-24.2-17.899c1.301,0,3.2,0.6,5.101,0.6c2.6,0,4.5,0,7-0.6
		c-11.5-2.601-20.4-12.801-20.4-25.5c0,0,0,0,0-0.601c3.2,1.9,7.7,3.2,11.5,3.2c-7-4.5-11.5-12.8-11.5-21.7
		c0-4.5,1.3-8.899,3.2-12.8c12.8,15.3,31.9,25.5,52.9,26.8c-0.601-1.899-0.601-3.8-0.601-5.7c0-14,11.5-25.5,25.5-25.5
		c7.7,0,14,3.2,18.5,8.301c5.7-1.301,11.5-3.2,16.601-6.4c-1.9,5.7-5.7,10.8-11.5,14c5.1-0.6,10.199-1.9,14.699-3.8
		C195.5,60.568,191,65.669,185.9,68.869L185.9,68.869z"/>
	<path fill="#EDECDC" d="M427,33.769h-68.3c-12.101,0-21.7,9.601-21.7,21.7v23v45.3c0,12.101,9.6,21.7,21.7,21.7H427
		c12.1,0,21.7-9.6,21.7-21.7v-45.3v-23C448.7,43.369,439.1,33.769,427,33.769z M416.8,47.169H433.4h2.5v2.6v15.9H416.8V47.169z
		 M377.4,77.769c3.8-5.1,9.6-8.3,15.899-8.3s12.101,3.2,15.9,8.3c2.5,3.2,3.8,7,3.8,11.5c0,10.9-9,19.8-19.8,19.8
		s-19.8-8.3-19.601-19.8C373.6,84.769,374.8,80.969,377.4,77.769z M437.8,123.669c0,6.3-5.1,10.8-10.8,10.8h-68.2
		c-6.3,0-10.8-5.1-10.8-10.8v-45.3h16.6c-2,3.8-2.6,7.699-2.6,11.5c0,17.199,14,30.6,30.6,30.6c17.2,0,30.601-14,30.601-30.6
		c0-4.4-0.7-8.301-2-11.5h16.6V123.669z"/>
</g>
<title>some-icons</title>
<desc>Created with Sketch.</desc>
</svg>
